<svg id="exnjkHrYtv01" xmlns="http://www.w3.org/2000/svg" xmlns:xlink="http://www.w3.org/1999/xlink" viewBox="0 0 300 300" shape-rendering="geometricPrecision" text-rendering="geometricPrecision" project-id="12306cafdd8945289af5243b925d03be" export-id="fe7426e15b71428b9e4006da37fa81da" cached="false"><path d="M110.700523,163.848672l64.100685-.343704q6.874067.100536,7.045919-6.702216t.446434-63.289487q-.273675-7.252347-8.894387-7.662857t-62.698651-.41051q-8.593275,2.326226-8.730112,8.073367t-.41051,23.535913l.523249,39.753574q3.039252,7.04592,8.617373,7.04592Z" transform="translate(.000001 0.000001)" paint-order="fill markers stroke" fill="none" stroke="#fff" stroke-width="0.6"/><path d="M54.164776,176.178747L63,206l12-.000001l5-16l5,16h11l10-30h-10l-5,15.999998-5-16h-11l-4,15.999999-6-16.000001-10.835224.178752Z" transform="translate(0 0.000009)" fill="none" stroke="#fff" stroke-width="0.6"/><path d="M116,196h16v-4.999994q-.37017-4.00409-4-7.000006c-3.62983-2.995916-4.474641-3.030724-10-3q-5.525359.030724-6.402481.792858Q105.58264,182.86217,105,191.000006c-.58264,8.137836,1,10.999985,5,12.999994q4,2.000009,11,2.000008Q131,205,130,203t-5-6q-3,3-5,2t-4-3Z" fill="none" stroke="#fff" stroke-width="0.6"/><path d="M116,191.000006h7Q121,187,119,188t-2,.999999l-1,2.000005" transform="translate(0 0.000003)" fill="none" stroke="#fff" stroke-width="0.6"/><path d="M156.103964,188.42136l.122058-6.347022q-6.048714-.183294-13.226023-.074338t-8,3.999999q-2.659099,7.665913,3,10t7,1h3q2,2-1,3t-7-1l-3-2-3,7q10,5.000018,16,2.000009t6.886788-5.000009q2.634804-10.137477-2.886787-9t-7.172453-.28307q-4.143329-.96478-1.827548-3.71693t11.103965.421361Z" transform="translate(.000001 0.000001)" fill="none" stroke="#fff" stroke-width="0.6" strokeLinecap="square" stroke-linejoin="round" stroke-miterlimit="17"/><path d="M170,174h-9v32.000015l9-.000007L170,174Z" fill="none" stroke="#fff" stroke-width="0.6"/><path d="M199,203q-6,6-13,4t-7-2q-5-4-5-9t0-5q1.706438-5.000001,5-7t3.293562-1.999999Q191,179.000002,195,183.000001t4,3.999999q2,2.000018,2,4.000009t0,4.999991h-17q1,3,4,3t6-2l5,6Z" fill="none" stroke="#fff" stroke-width="0.6"/><path d="M211,182.000001l5,12.14756l6-12.14756h9L219,210q-3,6.999999-10,4.999999t-7-2l3-6.999985l5,.999985q1-.500007-2-7t-7-18l10,.000002Z" transform="translate(0 0.000001)" fill="none" stroke="#fff" stroke-width="0.6"/><path d="M184,191.000009h7Q190,187.999997,188,188t-4,3.000009Z" transform="translate(0 0.000002)" fill="none" stroke="#fff" stroke-width="0.6"/><path d="M181.847128,170Q182,168,179,168t-5.000001,1l-.600825,2-.000001,2l1.402034,1l3.198791,1l2,1.178756q0,1.821244-1,1.821244t-4.198791,0h-1.801209q-.397582,2,1.801209,2t5.198791,0q2.293562-1,2.293562-3t-1.293563-3l-3.000001-1-2.000001-1q-1.000002-2,1-2t2.000002,0l1.000001,1q1.847135,0,1.84713-1Z" transform="translate(.000005 0)" fill="none" stroke="#fff" stroke-width="0.6"/><path d="M185,167q2,0,2,1t0,3q0-1,2-1t2,0q3,0,3,3t0,7h-3v-6q-1-1-2-1t-2,1v6h-3v-7-6h1Z" fill="none" stroke="#fff" stroke-width="0.6"/><path d="M199,178q3-.000004,3-1t0-3q0-1-2-1t-2,1q0,1.357512,0,2.178756C198,177,198,178,199,178Z" fill="none" stroke="#fff" stroke-width="0.6"/><path d="M203,180q2-.642488,2-3.821244t0-3.178756q-2-3-3-3c-1,0-4,0-5,1s-2,2-2,4s0,4.249496,2,5q2,.750504,6,0Z" fill="none" stroke="#fff" stroke-width="0.6"/><path d="M209,169v2h3v2h-2v5h2v2.365646h-4q-1.578146-.291194-1.544138-3.827959t.034007-3.536765l-1.054229-.102022q-1.496325-1.496323-.510111-1.904412t1.462317-.884192l.025036-1.58433l2.553661-.125179L209,169Z" transform="translate(.000002 0.000002)" fill="none" stroke="#fff" stroke-width="0.6"/><path d="M221.015515,168.321738L221,180h-2.000001v-12L221,168l.015515.321738Z" transform="translate(.000001 0)" fill="none" stroke="#fff" stroke-width="0.6"/><path d="M226,168.525968v2.468522h2v1.904412h-2L226,178h3v2h-4q-1,.5-1-3t0-4.101099l-2-.000001v-2.788604h2v-1.78856l2,.204232Z" transform="translate(0 0.000004)" fill="none" stroke="#fff" stroke-width="0.6"/><path style="isolation:isolate" d="M150,144q7.962013-3.824704,10.848223-10.544488t1.867962-13.259037l-2.466261-6.78222q-3.258989-5.284846-11.570821-7.885312c-8.311832-2.600466-16.135995-.393535-20.281865,4.056372s-8.515691,11.64853-7.020647,19.345779s5.460502,11.545062,9.360861,13.417234s12.938743,3.927402,19.262548,1.651672Z" transform="translate(.000002 0.000002)" fill="#fff" stroke="#fff" stroke-width="0.6"/><path d="M151.799391,109.117274q-.936086,4.836444,2.652244,6.084559c3.58833,1.248115,6.708617,1.560144,7.332674-2.028186s-.156015-7.020646-2.652244-7.332675-7.800717.936088-7.332674,3.276302Z" transform="translate(0 0.000002)" fill="#ff0202" stroke="#fff" stroke-width="0.6"/></svg>
